# Blender 5.1.1
# www.blender.org
o Sphere
v 0.000000 1.000000 0.000000
v 0.000000 0.831470 -0.555570
v 0.000000 0.555570 -0.831470
v 0.000000 0.195090 -0.980785
v 0.000000 0.000000 -1.000000
v 0.000000 -0.195090 -0.980785
v 0.000000 -0.555570 -0.831470
v 0.000000 -1.000000 0.000000
v 0.038060 0.980785 -0.191342
v 0.074658 0.923880 -0.375330
v 0.108386 0.831470 -0.544895
v 0.137950 0.707107 -0.693520
v 0.162212 0.555570 -0.815493
v 0.180240 0.382683 -0.906127
v 0.191342 0.195090 -0.961940
v 0.195090 0.000000 -0.980785
v 0.191342 -0.195090 -0.961940
v 0.180240 -0.382683 -0.906127
v 0.162212 -0.555570 -0.815493
v 0.137950 -0.707107 -0.693520
v 0.108386 -0.831470 -0.544895
v 0.074658 -0.923880 -0.375330
v 0.038060 -0.980785 -0.191342
v 0.074658 0.980785 -0.180240
v 0.146447 0.923880 -0.353553
v 0.212608 0.831470 -0.513280
v 0.270598 0.707107 -0.653281
v 0.318190 0.555570 -0.768178
v 0.353553 0.382683 -0.853553
v 0.375330 0.195090 -0.906127
v 0.382683 0.000000 -0.923879
v 0.375330 -0.195090 -0.906127
v 0.353553 -0.382683 -0.853553
v 0.318190 -0.555570 -0.768178
v 0.270598 -0.707107 -0.653281
v 0.212608 -0.831470 -0.513280
v 0.146447 -0.923880 -0.353553
v 0.074658 -0.980785 -0.180240
v 0.108386 0.980785 -0.162212
v 0.212608 0.923880 -0.318190
v 0.308658 0.831470 -0.461940
v 0.392847 0.707107 -0.587938
v 0.461940 0.555570 -0.691342
v 0.513280 0.382683 -0.768178
v 0.544895 0.195090 -0.815493
v 0.555570 0.000000 -0.831469
v 0.544895 -0.195090 -0.815493
v 0.513280 -0.382683 -0.768178
v 0.461940 -0.555570 -0.691342
v 0.392847 -0.707107 -0.587938
v 0.308658 -0.831470 -0.461940
v 0.212608 -0.923880 -0.318190
v 0.108386 -0.980785 -0.162212
v 0.137950 0.980785 -0.137950
v 0.270598 0.923880 -0.270598
v 0.392847 0.831470 -0.392847
v 0.500000 0.707107 -0.500000
v 0.587938 0.555570 -0.587938
v 0.653281 0.382683 -0.653281
v 0.693520 0.195090 -0.693520
v 0.707107 0.000000 -0.707107
v 0.693520 -0.195090 -0.693520
v 0.653281 -0.382683 -0.653281
v 0.587938 -0.555570 -0.587938
v 0.500000 -0.707107 -0.500000
v 0.392847 -0.831470 -0.392847
v 0.270598 -0.923880 -0.270598
v 0.137950 -0.980785 -0.137950
v 0.162212 0.980785 -0.108386
v 0.318190 0.923880 -0.212608
v 0.461940 0.831470 -0.308658
v 0.587938 0.707107 -0.392847
v 0.691342 0.555570 -0.461940
v 0.768178 0.382683 -0.513280
v 0.815493 0.195090 -0.544895
v 0.831470 0.000000 -0.555570
v 0.815493 -0.195090 -0.544895
v 0.768178 -0.382683 -0.513280
v 0.691342 -0.555570 -0.461940
v 0.587938 -0.707107 -0.392847
v 0.461940 -0.831470 -0.308658
v 0.318190 -0.923880 -0.212608
v 0.162212 -0.980785 -0.108386
v 0.180240 0.980785 -0.074658
v 0.353553 0.923880 -0.146447
v 0.513280 0.831470 -0.212607
v 0.653281 0.707107 -0.270598
v 0.768178 0.555570 -0.318190
v 0.853553 0.382683 -0.353553
v 0.906127 0.195090 -0.375330
v 0.923879 0.000000 -0.382683
v 0.906127 -0.195090 -0.375330
v 0.853553 -0.382683 -0.353553
v 0.768178 -0.555570 -0.318190
v 0.653281 -0.707107 -0.270598
v 0.513280 -0.831470 -0.212607
v 0.353553 -0.923880 -0.146447
v 0.180240 -0.980785 -0.074658
v 0.191342 0.980785 -0.038060
v 0.375330 0.923880 -0.074658
v 0.544895 0.831470 -0.108386
v 0.693520 0.707107 -0.137950
v 0.815493 0.555570 -0.162212
v 0.906127 0.382683 -0.180240
v 0.961940 0.195090 -0.191342
v 0.980785 0.000000 -0.195090
v 0.961940 -0.195090 -0.191342
v 0.906127 -0.382683 -0.180240
v 0.815493 -0.555570 -0.162212
v 0.693520 -0.707107 -0.137950
v 0.544895 -0.831470 -0.108386
v 0.375330 -0.923880 -0.074658
v 0.191342 -0.980785 -0.038060
v 0.195090 0.980785 0.000000
v 0.382683 0.923880 0.000000
v 0.555570 0.831470 0.000000
v 0.707107 0.707107 -0.000000
v 0.831469 0.555570 0.000000
v 0.923879 0.382683 -0.000000
v 0.980785 0.195090 0.000000
v 1.000000 0.000000 0.000000
v 0.980785 -0.195090 0.000000
v 0.923879 -0.382683 -0.000000
v 0.831469 -0.555570 0.000000
v 0.707107 -0.707107 -0.000000
v 0.555570 -0.831470 0.000000
v 0.382683 -0.923880 0.000000
v 0.195090 -0.980785 0.000000
v 0.191342 0.980785 0.038060
v 0.375330 0.923880 0.074658
v 0.544895 0.831470 0.108386
v 0.693520 0.707107 0.137950
v 0.815493 0.555570 0.162212
v 0.906127 0.382683 0.180240
v 0.961940 0.195090 0.191342
v 0.980785 0.000000 0.195090
v 0.961940 -0.195090 0.191342
v 0.906127 -0.382683 0.180240
v 0.815493 -0.555570 0.162212
v 0.693520 -0.707107 0.137950
v 0.544895 -0.831470 0.108386
v 0.375330 -0.923880 0.074658
v 0.191342 -0.980785 0.038060
v 0.180240 0.980785 0.074658
v 0.353553 0.923880 0.146447
v 0.513280 0.831470 0.212608
v 0.653281 0.707107 0.270598
v 0.768178 0.555570 0.318190
v 0.853553 0.382683 0.353553
v 0.906127 0.195090 0.375330
v 0.923879 0.000000 0.382683
v 0.906127 -0.195090 0.375330
v 0.853553 -0.382683 0.353553
v 0.768178 -0.555570 0.318190
v 0.653281 -0.707107 0.270598
v 0.513280 -0.831470 0.212608
v 0.353553 -0.923880 0.146447
v 0.180240 -0.980785 0.074658
v 0.162212 0.980785 0.108386
v 0.318190 0.923880 0.212608
v 0.461940 0.831470 0.308658
v 0.587938 0.707107 0.392847
v 0.691341 0.555570 0.461940
v 0.768178 0.382683 0.513280
v 0.815493 0.195090 0.544895
v 0.831469 0.000000 0.555570
v 0.815493 -0.195090 0.544895
v 0.768178 -0.382683 0.513280
v 0.691341 -0.555570 0.461940
v 0.587938 -0.707107 0.392847
v 0.461940 -0.831470 0.308658
v 0.318190 -0.923880 0.212608
v 0.162212 -0.980785 0.108386
v 0.137950 0.980785 0.137950
v 0.270598 0.923880 0.270598
v 0.392847 0.831470 0.392847
v 0.500000 0.707107 0.500000
v 0.587938 0.555570 0.587938
v 0.653281 0.382683 0.653281
v 0.693520 0.195090 0.693520
v 0.707106 0.000000 0.707107
v 0.693520 -0.195090 0.693520
v 0.653281 -0.382683 0.653281
v 0.587938 -0.555570 0.587938
v 0.500000 -0.707107 0.500000
v 0.392847 -0.831470 0.392847
v 0.270598 -0.923880 0.270598
v 0.137950 -0.980785 0.137950
v 0.108386 0.980785 0.162212
v 0.212607 0.923880 0.318190
v 0.308658 0.831470 0.461940
v 0.392847 0.707107 0.587938
v 0.461940 0.555570 0.691342
v 0.513280 0.382683 0.768178
v 0.544895 0.195090 0.815493
v 0.555570 0.000000 0.831469
v 0.544895 -0.195090 0.815493
v 0.513280 -0.382683 0.768178
v 0.461940 -0.555570 0.691342
v 0.392847 -0.707107 0.587938
v 0.308658 -0.831470 0.461940
v 0.212607 -0.923880 0.318190
v 0.108386 -0.980785 0.162212
v 0.074658 0.980785 0.180240
v 0.146447 0.923880 0.353553
v 0.212607 0.831470 0.513280
v 0.270598 0.707107 0.653281
v 0.318189 0.555570 0.768178
v 0.353553 0.382683 0.853553
v 0.375330 0.195090 0.906127
v 0.382683 0.000000 0.923879
v 0.375330 -0.195090 0.906127
v 0.353553 -0.382683 0.853553
v 0.318189 -0.555570 0.768178
v 0.270598 -0.707107 0.653281
v 0.212607 -0.831470 0.513280
v 0.146447 -0.923880 0.353553
v 0.074658 -0.980785 0.180240
v 0.038060 0.980785 0.191342
v 0.074658 0.923880 0.375330
v 0.108386 0.831470 0.544895
v 0.137950 0.707107 0.693520
v 0.162212 0.555570 0.815493
v 0.180240 0.382683 0.906127
v 0.191342 0.195090 0.961939
v 0.195090 0.000000 0.980785
v 0.191342 -0.195090 0.961939
v 0.180240 -0.382683 0.906127
v 0.162212 -0.555570 0.815493
v 0.137950 -0.707107 0.693520
v 0.108386 -0.831470 0.544895
v 0.074658 -0.923880 0.375330
v 0.038060 -0.980785 0.191342
v -0.000000 0.980785 0.195090
v -0.000000 0.923880 0.382683
v -0.000000 0.831470 0.555570
v -0.000000 0.707107 0.707107
v -0.000000 0.555570 0.831469
v 0.000000 0.382683 0.923879
v -0.000000 0.195090 0.980785
v -0.000000 0.000000 0.999999
v -0.000000 -0.195090 0.980785
v 0.000000 -0.382683 0.923879
v -0.000000 -0.555570 0.831469
v -0.000000 -0.707107 0.707107
v -0.000000 -0.831470 0.555570
v -0.000000 -0.923880 0.382683
v -0.000000 -0.980785 0.195090
v -0.038060 0.980785 0.191342
v -0.074658 0.923880 0.375330
v -0.108386 0.831470 0.544895
v -0.137950 0.707107 0.693520
v -0.162212 0.555570 0.815493
v -0.180240 0.382683 0.906127
v -0.191342 0.195090 0.961939
v -0.195091 0.000000 0.980785
v -0.191342 -0.195090 0.961939
v -0.180240 -0.382683 0.906127
v -0.162212 -0.555570 0.815493
v -0.137950 -0.707107 0.693520
v -0.108386 -0.831470 0.544895
v -0.074658 -0.923880 0.375330
v -0.038060 -0.980785 0.191342
v -0.074658 0.980785 0.180240
v -0.146447 0.923880 0.353553
v -0.212608 0.831470 0.513280
v -0.270598 0.707107 0.653281
v -0.318190 0.555570 0.768177
v -0.353553 0.382683 0.853553
v -0.375330 0.195090 0.906127
v -0.382683 0.000000 0.923879
v -0.375330 -0.195090 0.906127
v -0.353553 -0.382683 0.853553
v -0.318190 -0.555570 0.768177
v -0.270598 -0.707107 0.653281
v -0.212608 -0.831470 0.513280
v -0.146447 -0.923880 0.353553
v -0.074658 -0.980785 0.180240
v -0.108386 0.980785 0.162212
v -0.212608 0.923880 0.318190
v -0.308658 0.831470 0.461939
v -0.392847 0.707107 0.587938
v -0.461940 0.555570 0.691341
v -0.513280 0.382683 0.768178
v -0.544895 0.195090 0.815493
v -0.555570 0.000000 0.831469
v -0.544895 -0.195090 0.815493
v -0.513280 -0.382683 0.768178
v -0.461940 -0.555570 0.691341
v -0.392847 -0.707107 0.587938
v -0.308658 -0.831470 0.461939
v -0.212608 -0.923880 0.318190
v -0.108386 -0.980785 0.162212
v -0.137950 0.980785 0.137950
v -0.270598 0.923880 0.270598
v -0.392847 0.831470 0.392847
v -0.500000 0.707107 0.500000
v -0.587938 0.555570 0.587937
v -0.653281 0.382683 0.653281
v -0.693520 0.195090 0.693520
v -0.707106 0.000000 0.707106
v -0.693520 -0.195090 0.693520
v -0.653281 -0.382683 0.653281
v -0.587938 -0.555570 0.587937
v -0.500000 -0.707107 0.500000
v -0.392847 -0.831470 0.392847
v -0.270598 -0.923880 0.270598
v -0.137950 -0.980785 0.137950
v -0.162212 0.980785 0.108386
v -0.318190 0.923880 0.212607
v -0.461940 0.831470 0.308658
v -0.587938 0.707107 0.392847
v -0.691341 0.555570 0.461939
v -0.768177 0.382683 0.513280
v -0.815493 0.195090 0.544895
v -0.831469 0.000000 0.555569
v -0.815493 -0.195090 0.544895
v -0.768177 -0.382683 0.513280
v -0.691341 -0.555570 0.461939
v -0.587938 -0.707107 0.392847
v -0.461940 -0.831470 0.308658
v -0.318190 -0.923880 0.212607
v -0.162212 -0.980785 0.108386
v -0.180240 0.980785 0.074658
v -0.353553 0.923880 0.146447
v -0.513280 0.831470 0.212607
v -0.653281 0.707107 0.270598
v -0.768177 0.555570 0.318189
v -0.853553 0.382683 0.353553
v -0.906127 0.195090 0.375330
v -0.923879 0.000000 0.382683
v -0.906127 -0.195090 0.375330
v -0.853553 -0.382683 0.353553
v -0.768177 -0.555570 0.318189
v -0.653281 -0.707107 0.270598
v -0.513280 -0.831470 0.212607
v -0.353553 -0.923880 0.146447
v -0.180240 -0.980785 0.074658
v -0.191342 0.980785 0.038060
v -0.375330 0.923880 0.074658
v -0.544895 0.831470 0.108386
v -0.693520 0.707107 0.137950
v -0.815493 0.555570 0.162211
v -0.906127 0.382683 0.180240
v -0.961939 0.195090 0.191341
v -0.980784 0.000000 0.195090
v -0.961939 -0.195090 0.191341
v -0.906127 -0.382683 0.180240
v -0.815493 -0.555570 0.162211
v -0.693520 -0.707107 0.137950
v -0.544895 -0.831470 0.108386
v -0.375330 -0.923880 0.074658
v -0.191342 -0.980785 0.038060
v -0.195090 0.980785 -0.000000
v -0.382683 0.923880 -0.000000
v -0.555570 0.831470 -0.000000
v -0.707107 0.707107 -0.000000
v -0.831469 0.555570 -0.000000
v -0.923879 0.382683 -0.000000
v -0.980785 0.195090 -0.000000
v -0.999999 0.000000 -0.000000
v -0.980785 -0.195090 -0.000000
v -0.923879 -0.382683 -0.000000
v -0.831469 -0.555570 -0.000000
v -0.707107 -0.707107 -0.000000
v -0.555570 -0.831470 -0.000000
v -0.382683 -0.923880 -0.000000
v -0.195090 -0.980785 -0.000000
v -0.191342 0.980785 -0.038060
v -0.375330 0.923880 -0.074658
v -0.544895 0.831470 -0.108386
v -0.693520 0.707107 -0.137950
v -0.815493 0.555570 -0.162212
v -0.906127 0.382683 -0.180240
v -0.961939 0.195090 -0.191342
v -0.980784 0.000000 -0.195091
v -0.961939 -0.195090 -0.191342
v -0.906127 -0.382683 -0.180240
v -0.815493 -0.555570 -0.162212
v -0.693520 -0.707107 -0.137950
v -0.544895 -0.831470 -0.108386
v -0.375330 -0.923880 -0.074658
v -0.191342 -0.980785 -0.038060
v -0.180240 0.980785 -0.074658
v -0.353553 0.923880 -0.146447
v -0.513279 0.831470 -0.212607
v -0.653281 0.707107 -0.270598
v -0.768177 0.555570 -0.318190
v -0.853553 0.382683 -0.353553
v -0.906127 0.195090 -0.375330
v -0.923878 0.000000 -0.382683
v -0.906127 -0.195090 -0.375330
v -0.853553 -0.382683 -0.353553
v -0.768177 -0.555570 -0.318190
v -0.653281 -0.707107 -0.270598
v -0.513279 -0.831470 -0.212607
v -0.353553 -0.923880 -0.146447
v -0.180240 -0.980785 -0.074658
v -0.162212 0.980785 -0.108386
v -0.318189 0.923880 -0.212607
v -0.461939 0.831470 -0.308658
v -0.587938 0.707107 -0.392847
v -0.691341 0.555570 -0.461940
v -0.768177 0.382683 -0.513280
v -0.815493 0.195090 -0.544895
v -0.831468 0.000000 -0.555570
v -0.815493 -0.195090 -0.544895
v -0.768177 -0.382683 -0.513280
v -0.691341 -0.555570 -0.461940
v -0.587938 -0.707107 -0.392847
v -0.461939 -0.831470 -0.308658
v -0.318189 -0.923880 -0.212607
v -0.162212 -0.980785 -0.108386
v -0.137950 0.980785 -0.137950
v -0.270598 0.923880 -0.270598
v -0.392847 0.831470 -0.392847
v -0.500000 0.707107 -0.500000
v -0.587937 0.555570 -0.587938
v -0.653281 0.382683 -0.653281
v -0.693519 0.195090 -0.693520
v -0.707106 0.000000 -0.707106
v -0.693519 -0.195090 -0.693520
v -0.653281 -0.382683 -0.653281
v -0.587937 -0.555570 -0.587938
v -0.500000 -0.707107 -0.500000
v -0.392847 -0.831470 -0.392847
v -0.270598 -0.923880 -0.270598
v -0.137950 -0.980785 -0.137950
v -0.108386 0.980785 -0.162212
v -0.212607 0.923880 -0.318190
v -0.308658 0.831470 -0.461939
v -0.392847 0.707107 -0.587938
v -0.461939 0.555570 -0.691341
v -0.513280 0.382683 -0.768177
v -0.544895 0.195090 -0.815493
v -0.555569 0.000000 -0.831469
v -0.544895 -0.195090 -0.815493
v -0.513280 -0.382683 -0.768177
v -0.461939 -0.555570 -0.691341
v -0.392847 -0.707107 -0.587938
v -0.308658 -0.831470 -0.461939
v -0.212607 -0.923880 -0.318190
v -0.108386 -0.980785 -0.162212
v -0.074658 0.980785 -0.180240
v -0.146446 0.923880 -0.353553
v -0.212607 0.831470 -0.513279
v -0.270598 0.707107 -0.653281
v -0.318189 0.555570 -0.768177
v -0.353553 0.382683 -0.853553
v -0.375330 0.195090 -0.906127
v -0.382683 0.000000 -0.923879
v -0.375330 -0.195090 -0.906127
v -0.353553 -0.382683 -0.853553
v -0.318189 -0.555570 -0.768177
v -0.270598 -0.707107 -0.653281
v -0.212607 -0.831470 -0.513279
v -0.146446 -0.923880 -0.353553
v -0.074658 -0.980785 -0.180240
v -0.038060 0.980785 -0.191342
v -0.074658 0.923880 -0.375330
v -0.108386 0.831470 -0.544895
v -0.137950 0.707107 -0.693520
v -0.162211 0.555570 -0.815493
v -0.180240 0.382683 -0.906127
v -0.191341 0.195090 -0.961939
v -0.195090 0.000000 -0.980784
v -0.191341 -0.195090 -0.961939
v -0.180240 -0.382683 -0.906127
v -0.162211 -0.555570 -0.815493
v -0.137950 -0.707107 -0.693520
v -0.108386 -0.831470 -0.544895
v -0.074658 -0.923880 -0.375330
v -0.038060 -0.980785 -0.191342
v 0.000000 0.980785 -0.195090
v 0.000000 0.923880 -0.382683
v 0.000000 0.707107 -0.707107
v 0.000000 0.382683 -0.923879
v 0.000000 -0.382683 -0.923879
v 0.000000 -0.707107 -0.707107
v 0.000000 -0.831470 -0.555570
v 0.000000 -0.923880 -0.382683
v 0.000000 -0.980785 -0.195090
vn 0.0286 0.9565 -0.2902
vn 0.0938 -0.2890 -0.9527
vn 0.0464 0.8810 -0.4709
vn 0.0865 -0.4696 -0.8786
vn 0.0624 0.7715 -0.6332
vn 0.0759 -0.6326 -0.7708
vn 0.0759 0.6326 -0.7708
vn 0.0624 -0.7715 -0.6332
vn 0.0865 0.4696 -0.8786
vn 0.0464 -0.8810 -0.4709
vn 0.0938 0.2890 -0.9527
vn 0.0286 -0.9565 -0.2902
vn 0.0975 0.0975 -0.9904
vn 0.0097 0.9951 -0.0980
vn 0.0097 -0.9951 -0.0980
vn 0.0975 -0.0975 -0.9904
vn 0.2889 0.0976 -0.9524
vn 0.0286 0.9951 -0.0942
vn 0.0286 -0.9951 -0.0942
vn 0.2889 -0.0976 -0.9524
vn 0.0846 0.9565 -0.2790
vn 0.2779 -0.2890 -0.9161
vn 0.1374 0.8810 -0.4528
vn 0.2563 -0.4696 -0.8448
vn 0.1847 0.7715 -0.6088
vn 0.2248 -0.6326 -0.7412
vn 0.2248 0.6326 -0.7412
vn 0.1847 -0.7715 -0.6088
vn 0.2563 0.4696 -0.8448
vn 0.1374 -0.8810 -0.4528
vn 0.2779 0.2890 -0.9161
vn 0.0846 -0.9565 -0.2790
vn 0.3651 -0.6326 -0.6831
vn 0.3651 0.6326 -0.6831
vn 0.2999 -0.7715 -0.5611
vn 0.4162 0.4696 -0.7786
vn 0.2230 -0.8810 -0.4173
vn 0.4513 0.2890 -0.8443
vn 0.1374 -0.9565 -0.2571
vn 0.4691 0.0975 -0.8777
vn 0.0464 0.9951 -0.0869
vn 0.0464 -0.9951 -0.0869
vn 0.4691 -0.0975 -0.8777
vn 0.1374 0.9565 -0.2571
vn 0.4513 -0.2890 -0.8443
vn 0.2230 0.8810 -0.4173
vn 0.4162 -0.4696 -0.7786
vn 0.2999 0.7715 -0.5611
vn 0.0625 -0.9951 -0.0761
vn 0.6314 -0.0975 -0.7693
vn 0.1850 0.9565 -0.2254
vn 0.6073 -0.2890 -0.7400
vn 0.3002 0.8810 -0.3658
vn 0.5601 -0.4696 -0.6825
vn 0.4036 0.7715 -0.4918
vn 0.4913 -0.6326 -0.5987
vn 0.4913 0.6326 -0.5987
vn 0.4036 -0.7715 -0.4918
vn 0.5601 0.4696 -0.6825
vn 0.3002 -0.8810 -0.3658
vn 0.6073 0.2890 -0.7400
vn 0.1850 -0.9565 -0.2254
vn 0.6314 0.0975 -0.7693
vn 0.0625 0.9951 -0.0761
vn 0.4918 -0.7715 -0.4036
vn 0.6825 0.4696 -0.5601
vn 0.3658 -0.8810 -0.3002
vn 0.7400 0.2890 -0.6073
vn 0.2254 -0.9565 -0.1850
vn 0.7693 0.0975 -0.6314
vn 0.0761 0.9951 -0.0625
vn 0.0761 -0.9951 -0.0625
vn 0.7693 -0.0975 -0.6314
vn 0.2254 0.9565 -0.1850
vn 0.7400 -0.2890 -0.6073
vn 0.3658 0.8810 -0.3002
vn 0.6825 -0.4696 -0.5601
vn 0.4918 0.7715 -0.4036
vn 0.5987 -0.6326 -0.4913
vn 0.5987 0.6326 -0.4913
vn 0.2571 0.9565 -0.1374
vn 0.8443 -0.2890 -0.4513
vn 0.4173 0.8810 -0.2230
vn 0.7786 -0.4696 -0.4162
vn 0.5611 0.7715 -0.2999
vn 0.6831 -0.6326 -0.3651
vn 0.6831 0.6326 -0.3651
vn 0.5611 -0.7715 -0.2999
vn 0.7786 0.4696 -0.4162
vn 0.4173 -0.8810 -0.2230
vn 0.8443 0.2890 -0.4513
vn 0.2571 -0.9565 -0.1374
vn 0.8777 0.0975 -0.4691
vn 0.0869 0.9951 -0.0464
vn 0.0869 -0.9951 -0.0464
vn 0.8777 -0.0975 -0.4691
vn 0.8448 0.4696 -0.2563
vn 0.4528 -0.8810 -0.1374
vn 0.9161 0.2890 -0.2779
vn 0.2790 -0.9565 -0.0846
vn 0.9524 0.0975 -0.2889
vn 0.0942 0.9951 -0.0286
vn 0.0942 -0.9951 -0.0286
vn 0.9524 -0.0975 -0.2889
vn 0.2790 0.9565 -0.0846
vn 0.9161 -0.2890 -0.2779
vn 0.4528 0.8810 -0.1374
vn 0.8448 -0.4696 -0.2563
vn 0.6088 0.7715 -0.1847
vn 0.7412 -0.6326 -0.2248
vn 0.7412 0.6326 -0.2248
vn 0.6088 -0.7715 -0.1847
vn 0.9527 -0.2890 -0.0938
vn 0.4709 0.8810 -0.0464
vn 0.8786 -0.4696 -0.0865
vn 0.6332 0.7715 -0.0624
vn 0.7708 -0.6326 -0.0759
vn 0.7708 0.6326 -0.0759
vn 0.6332 -0.7715 -0.0624
vn 0.8786 0.4696 -0.0865
vn 0.4709 -0.8810 -0.0464
vn 0.9527 0.2890 -0.0938
vn 0.2902 -0.9565 -0.0286
vn 0.9904 0.0975 -0.0975
vn 0.0980 0.9951 -0.0097
vn 0.0980 -0.9951 -0.0097
vn 0.9904 -0.0975 -0.0975
vn 0.2902 0.9565 -0.0286
vn 0.4709 -0.8810 0.0464
vn 0.9527 0.2890 0.0938
vn 0.2902 -0.9565 0.0286
vn 0.9904 0.0975 0.0976
vn 0.0980 0.9951 0.0097
vn 0.0980 -0.9951 0.0097
vn 0.9904 -0.0975 0.0976
vn 0.2902 0.9565 0.0286
vn 0.9527 -0.2890 0.0938
vn 0.4709 0.8810 0.0464
vn 0.8786 -0.4696 0.0865
vn 0.6332 0.7715 0.0624
vn 0.7708 -0.6326 0.0759
vn 0.7708 0.6326 0.0759
vn 0.6332 -0.7715 0.0624
vn 0.8786 0.4696 0.0865
vn 0.4528 0.8810 0.1374
vn 0.8448 -0.4696 0.2563
vn 0.6088 0.7715 0.1847
vn 0.7412 -0.6326 0.2248
vn 0.7412 0.6326 0.2248
vn 0.6088 -0.7715 0.1847
vn 0.8448 0.4696 0.2563
vn 0.4528 -0.8810 0.1374
vn 0.9161 0.2890 0.2779
vn 0.2790 -0.9565 0.0846
vn 0.9524 0.0975 0.2889
vn 0.0942 0.9951 0.0286
vn 0.0942 -0.9951 0.0286
vn 0.9524 -0.0975 0.2889
vn 0.2790 0.9565 0.0846
vn 0.9161 -0.2890 0.2779
vn 0.8443 0.2890 0.4513
vn 0.2571 -0.9565 0.1374
vn 0.8777 0.0975 0.4691
vn 0.0869 0.9951 0.0464
vn 0.0869 -0.9951 0.0464
vn 0.8777 -0.0975 0.4691
vn 0.2571 0.9565 0.1374
vn 0.8443 -0.2890 0.4513
vn 0.4173 0.8810 0.2230
vn 0.7786 -0.4696 0.4162
vn 0.5611 0.7715 0.2999
vn 0.6831 -0.6326 0.3651
vn 0.6831 0.6326 0.3651
vn 0.5611 -0.7715 0.2999
vn 0.7786 0.4696 0.4162
vn 0.4173 -0.8810 0.2230
vn 0.6825 -0.4696 0.5601
vn 0.4918 0.7715 0.4036
vn 0.5987 -0.6326 0.4913
vn 0.5987 0.6326 0.4913
vn 0.4918 -0.7715 0.4036
vn 0.6825 0.4696 0.5601
vn 0.3658 -0.8810 0.3002
vn 0.7400 0.2890 0.6073
vn 0.2254 -0.9565 0.1850
vn 0.7693 0.0975 0.6314
vn 0.0761 0.9951 0.0625
vn 0.0761 -0.9951 0.0625
vn 0.7693 -0.0975 0.6314
vn 0.2254 0.9565 0.1850
vn 0.7400 -0.2890 0.6073
vn 0.3658 0.8810 0.3002
vn 0.1850 -0.9565 0.2254
vn 0.6314 0.0975 0.7693
vn 0.0625 0.9951 0.0761
vn 0.0625 -0.9951 0.0761
vn 0.6314 -0.0975 0.7693
vn 0.1850 0.9565 0.2254
vn 0.6073 -0.2890 0.7400
vn 0.3002 0.8810 0.3658
vn 0.5601 -0.4696 0.6825
vn 0.4036 0.7715 0.4918
vn 0.4913 -0.6326 0.5987
vn 0.4913 0.6326 0.5987
vn 0.4036 -0.7715 0.4918
vn 0.5601 0.4696 0.6825
vn 0.3002 -0.8810 0.3658
vn 0.6073 0.2890 0.7400
vn 0.3651 -0.6326 0.6831
vn 0.3651 0.6326 0.6831
vn 0.2999 -0.7715 0.5611
vn 0.4162 0.4696 0.7786
vn 0.2230 -0.8810 0.4173
vn 0.4513 0.2890 0.8443
vn 0.1374 -0.9565 0.2571
vn 0.4691 0.0975 0.8777
vn 0.0464 0.9951 0.0869
vn 0.0464 -0.9951 0.0869
vn 0.4691 -0.0975 0.8777
vn 0.1374 0.9565 0.2571
vn 0.4513 -0.2890 0.8443
vn 0.2230 0.8810 0.4173
vn 0.4162 -0.4696 0.7786
vn 0.2999 0.7715 0.5611
vn 0.0286 0.9951 0.0942
vn 0.0286 -0.9951 0.0942
vn 0.2889 -0.0975 0.9524
vn 0.0846 0.9565 0.2790
vn 0.2779 -0.2890 0.9161
vn 0.1374 0.8810 0.4528
vn 0.2563 -0.4696 0.8448
vn 0.1847 0.7715 0.6088
vn 0.2248 -0.6326 0.7412
vn 0.2248 0.6326 0.7412
vn 0.1847 -0.7715 0.6088
vn 0.2563 0.4696 0.8448
vn 0.1374 -0.8810 0.4528
vn 0.2779 0.2890 0.9161
vn 0.0846 -0.9565 0.2790
vn 0.2889 0.0975 0.9524
vn 0.0759 0.6326 0.7708
vn 0.0624 -0.7715 0.6332
vn 0.0865 0.4696 0.8786
vn 0.0464 -0.8810 0.4709
vn 0.0938 0.2890 0.9527
vn 0.0286 -0.9565 0.2902
vn 0.0975 0.0975 0.9904
vn 0.0097 0.9951 0.0980
vn 0.0097 -0.9951 0.0980
vn 0.0975 -0.0975 0.9904
vn 0.0286 0.9565 0.2902
vn 0.0938 -0.2890 0.9527
vn 0.0464 0.8810 0.4709
vn 0.0865 -0.4696 0.8786
vn 0.0624 0.7715 0.6332
vn 0.0759 -0.6326 0.7708
vn -0.0976 -0.0975 0.9904
vn -0.0286 0.9565 0.2902
vn -0.0938 -0.2890 0.9527
vn -0.0464 0.8810 0.4709
vn -0.0865 -0.4696 0.8786
vn -0.0624 0.7715 0.6332
vn -0.0759 -0.6326 0.7708
vn -0.0759 0.6326 0.7708
vn -0.0624 -0.7715 0.6332
vn -0.0865 0.4696 0.8786
vn -0.0464 -0.8810 0.4709
vn -0.0938 0.2890 0.9527
vn -0.0286 -0.9565 0.2902
vn -0.0976 0.0975 0.9904
vn -0.0097 0.9951 0.0980
vn -0.0097 -0.9951 0.0980
vn -0.1847 -0.7715 0.6088
vn -0.2563 0.4696 0.8448
vn -0.1374 -0.8810 0.4528
vn -0.2779 0.2890 0.9161
vn -0.0846 -0.9565 0.2790
vn -0.2889 0.0975 0.9524
vn -0.0286 0.9951 0.0942
vn -0.0286 -0.9951 0.0942
vn -0.2889 -0.0975 0.9524
vn -0.0846 0.9565 0.2790
vn -0.2779 -0.2890 0.9161
vn -0.1374 0.8810 0.4528
vn -0.2563 -0.4696 0.8448
vn -0.1847 0.7715 0.6088
vn -0.2248 -0.6326 0.7412
vn -0.2248 0.6326 0.7412
vn -0.1374 0.9565 0.2571
vn -0.4513 -0.2890 0.8443
vn -0.2230 0.8810 0.4173
vn -0.4162 -0.4696 0.7786
vn -0.2999 0.7715 0.5611
vn -0.3651 -0.6326 0.6831
vn -0.3651 0.6326 0.6831
vn -0.2999 -0.7715 0.5611
vn -0.4162 0.4696 0.7786
vn -0.2230 -0.8810 0.4173
vn -0.4513 0.2890 0.8443
vn -0.1374 -0.9565 0.2571
vn -0.4691 0.0975 0.8777
vn -0.0464 0.9951 0.0869
vn -0.0464 -0.9951 0.0869
vn -0.4691 -0.0975 0.8777
vn -0.5601 0.4696 0.6825
vn -0.3002 -0.8810 0.3658
vn -0.6073 0.2890 0.7400
vn -0.1850 -0.9565 0.2254
vn -0.6314 0.0975 0.7693
vn -0.0625 0.9951 0.0761
vn -0.0625 -0.9951 0.0761
vn -0.6314 -0.0975 0.7693
vn -0.1850 0.9565 0.2254
vn -0.6073 -0.2890 0.7400
vn -0.3002 0.8810 0.3658
vn -0.5601 -0.4696 0.6825
vn -0.4036 0.7715 0.4918
vn -0.4913 -0.6326 0.5987
vn -0.4913 0.6326 0.5987
vn -0.4036 -0.7715 0.4918
vn -0.7400 -0.2890 0.6073
vn -0.3658 0.8810 0.3002
vn -0.6825 -0.4696 0.5601
vn -0.4918 0.7715 0.4036
vn -0.5987 -0.6326 0.4913
vn -0.5987 0.6326 0.4913
vn -0.4918 -0.7715 0.4036
vn -0.6825 0.4696 0.5601
vn -0.3658 -0.8810 0.3002
vn -0.7400 0.2890 0.6073
vn -0.2254 -0.9565 0.1850
vn -0.7693 0.0975 0.6314
vn -0.0761 0.9951 0.0625
vn -0.0761 -0.9951 0.0625
vn -0.7693 -0.0975 0.6314
vn -0.2254 0.9565 0.1850
vn -0.4173 -0.8810 0.2230
vn -0.8443 0.2890 0.4513
vn -0.2571 -0.9565 0.1374
vn -0.8777 0.0975 0.4691
vn -0.0869 0.9951 0.0464
vn -0.0869 -0.9951 0.0464
vn -0.8777 -0.0975 0.4691
vn -0.2571 0.9565 0.1374
vn -0.8443 -0.2890 0.4513
vn -0.4173 0.8810 0.2230
vn -0.7786 -0.4696 0.4162
vn -0.5611 0.7715 0.2999
vn -0.6831 -0.6326 0.3651
vn -0.6831 0.6326 0.3651
vn -0.5611 -0.7715 0.2999
vn -0.7786 0.4696 0.4162
vn -0.8448 -0.4696 0.2563
vn -0.6088 0.7715 0.1847
vn -0.7412 -0.6326 0.2248
vn -0.7412 0.6326 0.2248
vn -0.6088 -0.7715 0.1847
vn -0.8448 0.4696 0.2563
vn -0.4528 -0.8810 0.1374
vn -0.9161 0.2890 0.2779
vn -0.2790 -0.9565 0.0846
vn -0.9524 0.0975 0.2889
vn -0.0942 0.9951 0.0286
vn -0.0942 -0.9951 0.0286
vn -0.9524 -0.0975 0.2889
vn -0.2790 0.9565 0.0846
vn -0.9161 -0.2890 0.2779
vn -0.4528 0.8810 0.1374
vn -0.2902 -0.9565 0.0286
vn -0.9904 0.0975 0.0975
vn -0.0980 0.9951 0.0097
vn -0.0980 -0.9951 0.0097
vn -0.9904 -0.0975 0.0975
vn -0.2902 0.9565 0.0286
vn -0.9527 -0.2890 0.0938
vn -0.4709 0.8810 0.0464
vn -0.8786 -0.4696 0.0865
vn -0.6332 0.7715 0.0624
vn -0.7708 -0.6326 0.0759
vn -0.7708 0.6326 0.0759
vn -0.6332 -0.7715 0.0624
vn -0.8786 0.4696 0.0865
vn -0.4709 -0.8810 0.0464
vn -0.9527 0.2890 0.0938
vn -0.6332 0.7715 -0.0624
vn -0.7708 -0.6326 -0.0759
vn -0.7708 0.6326 -0.0759
vn -0.6332 -0.7715 -0.0624
vn -0.8786 0.4696 -0.0865
vn -0.4709 -0.8810 -0.0464
vn -0.9527 0.2890 -0.0938
vn -0.2902 -0.9565 -0.0286
vn -0.9904 0.0975 -0.0976
vn -0.0980 0.9951 -0.0097
vn -0.0980 -0.9951 -0.0097
vn -0.9904 -0.0975 -0.0976
vn -0.2902 0.9565 -0.0286
vn -0.9527 -0.2890 -0.0938
vn -0.4709 0.8810 -0.0464
vn -0.8786 -0.4696 -0.0865
vn -0.9524 0.0975 -0.2889
vn -0.0942 0.9951 -0.0286
vn -0.0942 -0.9951 -0.0286
vn -0.9524 -0.0975 -0.2889
vn -0.2790 0.9565 -0.0846
vn -0.9161 -0.2890 -0.2779
vn -0.4528 0.8810 -0.1374
vn -0.8448 -0.4696 -0.2563
vn -0.6088 0.7715 -0.1847
vn -0.7412 -0.6326 -0.2248
vn -0.7412 0.6326 -0.2248
vn -0.6088 -0.7715 -0.1847
vn -0.8448 0.4696 -0.2563
vn -0.4528 -0.8810 -0.1374
vn -0.9161 0.2890 -0.2779
vn -0.2790 -0.9565 -0.0846
vn -0.6831 -0.6326 -0.3651
vn -0.6831 0.6326 -0.3651
vn -0.5611 -0.7715 -0.2999
vn -0.7786 0.4696 -0.4162
vn -0.4173 -0.8810 -0.2231
vn -0.8443 0.2890 -0.4513
vn -0.2571 -0.9565 -0.1374
vn -0.8777 0.0975 -0.4691
vn -0.0869 0.9951 -0.0464
vn -0.0869 -0.9951 -0.0464
vn -0.8777 -0.0975 -0.4691
vn -0.2571 0.9565 -0.1374
vn -0.8443 -0.2890 -0.4513
vn -0.4173 0.8810 -0.2231
vn -0.7786 -0.4696 -0.4162
vn -0.5611 0.7715 -0.2999
vn -0.0761 0.9951 -0.0625
vn -0.0761 -0.9951 -0.0625
vn -0.7693 -0.0975 -0.6314
vn -0.2254 0.9565 -0.1850
vn -0.7400 -0.2890 -0.6073
vn -0.3658 0.8810 -0.3002
vn -0.6825 -0.4696 -0.5601
vn -0.4918 0.7715 -0.4036
vn -0.5987 -0.6326 -0.4913
vn -0.5987 0.6326 -0.4913
vn -0.4918 -0.7715 -0.4036
vn -0.6825 0.4696 -0.5601
vn -0.3658 -0.8810 -0.3002
vn -0.7400 0.2890 -0.6073
vn -0.2254 -0.9565 -0.1850
vn -0.7693 0.0975 -0.6314
vn -0.4913 0.6326 -0.5987
vn -0.4036 -0.7715 -0.4918
vn -0.5601 0.4696 -0.6825
vn -0.3002 -0.8810 -0.3658
vn -0.6073 0.2890 -0.7400
vn -0.1850 -0.9565 -0.2254
vn -0.6314 0.0975 -0.7693
vn -0.0625 0.9951 -0.0761
vn -0.0625 -0.9951 -0.0761
vn -0.6314 -0.0975 -0.7693
vn -0.1850 0.9565 -0.2254
vn -0.6073 -0.2890 -0.7400
vn -0.3002 0.8810 -0.3658
vn -0.5601 -0.4696 -0.6825
vn -0.4036 0.7715 -0.4918
vn -0.4913 -0.6326 -0.5987
vn -0.4691 -0.0975 -0.8777
vn -0.1374 0.9565 -0.2571
vn -0.4513 -0.2890 -0.8443
vn -0.2230 0.8810 -0.4173
vn -0.4162 -0.4696 -0.7786
vn -0.2999 0.7715 -0.5611
vn -0.3651 -0.6326 -0.6831
vn -0.3651 0.6326 -0.6831
vn -0.2999 -0.7715 -0.5611
vn -0.4162 0.4696 -0.7786
vn -0.2230 -0.8810 -0.4173
vn -0.4513 0.2890 -0.8443
vn -0.1374 -0.9565 -0.2571
vn -0.4691 0.0975 -0.8777
vn -0.0464 0.9951 -0.0869
vn -0.0464 -0.9951 -0.0869
vn -0.1847 -0.7715 -0.6088
vn -0.2563 0.4696 -0.8448
vn -0.1374 -0.8810 -0.4528
vn -0.2779 0.2890 -0.9161
vn -0.0846 -0.9565 -0.2790
vn -0.2889 0.0975 -0.9524
vn -0.0286 0.9951 -0.0942
vn -0.0286 -0.9951 -0.0942
vn -0.2889 -0.0975 -0.9524
vn -0.0846 0.9565 -0.2790
vn -0.2779 -0.2890 -0.9161
vn -0.1374 0.8810 -0.4528
vn -0.2563 -0.4696 -0.8448
vn -0.1847 0.7715 -0.6088
vn -0.2248 -0.6326 -0.7412
vn -0.2248 0.6326 -0.7412
vn -0.0938 -0.2890 -0.9527
vn -0.0464 0.8810 -0.4709
vn -0.0865 -0.4696 -0.8786
vn -0.0624 0.7715 -0.6332
vn -0.0759 -0.6326 -0.7708
vn -0.0759 0.6326 -0.7708
vn -0.0624 -0.7715 -0.6332
vn -0.0865 0.4696 -0.8786
vn -0.0464 -0.8810 -0.4709
vn -0.0938 0.2890 -0.9527
vn -0.0286 -0.9565 -0.2902
vn -0.0976 0.0975 -0.9904
vn -0.0097 0.9951 -0.0980
vn -0.0097 -0.9951 -0.0980
vn -0.0976 -0.0975 -0.9904
vn -0.0286 0.9565 -0.2902
vt 0.500000 1.359563
vt 0.500000 1.412507
vt 0.464589 1.412507
vt 0.430539 1.359563
vt 0.500000 0.143957
vt 0.500000 0.318491
vt 0.321979 0.318491
vt 0.332308 0.143957
vt 0.500000 1.273586
vt 0.399159 1.273586
vt 0.500000 -0.016894
vt 0.349081 -0.016894
vt 0.500000 1.157881
vt 0.371654 1.157881
vt 0.500000 -0.157881
vt 0.371654 -0.157881
vt 0.500000 1.016894
vt 0.349081 1.016894
vt 0.500000 -0.273586
vt 0.399159 -0.273586
vt 0.500000 0.856042
vt 0.332308 0.856042
vt 0.500000 -0.359563
vt 0.430539 -0.359563
vt 0.500000 0.681509
vt 0.321979 0.681509
vt 0.500000 -0.412507
vt 0.464589 -0.412507
vt 0.500000 0.500000
vt 0.318491 0.500000
vt 0.500000 1.430384
vt 0.500000 -0.430384
vt 0.150799 0.681509
vt 0.143957 0.500000
vt 0.430539 1.412507
vt 0.430539 -0.412507
vt 0.150799 0.318491
vt 0.363748 1.359563
vt 0.171059 0.143957
vt 0.302193 1.273586
vt 0.203961 -0.016894
vt 0.248240 1.157881
vt 0.248240 -0.157881
vt 0.203961 1.016894
vt 0.302193 -0.273586
vt 0.171059 0.856042
vt 0.363748 -0.359563
vt 0.070218 -0.016894
vt 0.134501 -0.157881
vt 0.134501 1.157881
vt 0.070218 1.016894
vt 0.212829 -0.273586
vt 0.022452 0.856042
vt 0.302193 -0.359563
vt -0.006962 0.681509
vt 0.399159 -0.412507
vt -0.016894 0.500000
vt 0.399159 1.412507
vt -0.006962 0.318491
vt 0.302193 1.359563
vt 0.022452 0.143957
vt 0.212829 1.273586
vt 0.371654 -0.412507
vt -0.157881 0.500000
vt -0.145240 0.318491
vt 0.371654 1.412507
vt 0.248240 1.359563
vt -0.107803 0.143957
vt 0.134501 1.273586
vt -0.047008 -0.016894
vt 0.034808 1.157881
vt 0.034808 -0.157881
vt -0.047008 1.016894
vt 0.134501 -0.273586
vt -0.107803 0.856042
vt 0.248240 -0.359563
vt -0.145240 0.681509
vt -0.047008 -0.157881
vt 0.070218 -0.273586
vt -0.143214 1.016894
vt -0.214700 0.856042
vt 0.203961 -0.359563
vt -0.258722 0.681509
vt 0.349081 -0.412507
vt -0.273586 0.500000
vt 0.349081 1.412507
vt -0.258722 0.318491
vt 0.203961 1.359563
vt -0.214700 0.143957
vt 0.070218 1.273586
vt -0.143214 -0.016894
vt -0.047008 1.157881
vt 0.332308 1.412507
vt 0.171059 1.359563
vt -0.343047 0.318491
vt -0.294132 0.143957
vt 0.022452 1.273586
vt -0.214700 -0.016894
vt -0.107803 1.157881
vt -0.107803 -0.157881
vt -0.214700 1.016894
vt 0.022452 -0.273586
vt -0.294132 0.856042
vt 0.171059 -0.359563
vt -0.343047 0.681509
vt 0.332308 -0.412507
vt -0.359563 0.500000
vt -0.258722 1.016894
vt -0.343047 0.856042
vt -0.006962 -0.273586
vt 0.150799 -0.359563
vt -0.394974 0.681509
vt 0.321979 -0.412507
vt -0.412507 0.500000
vt 0.321979 1.412507
vt -0.394974 0.318491
vt 0.150799 1.359563
vt -0.343047 0.143957
vt -0.006962 1.273586
vt -0.258722 -0.016894
vt -0.145240 1.157881
vt -0.145240 -0.157881
vt -0.412507 0.318491
vt -0.359563 0.143957
vt 0.143957 1.359563
vt -0.016894 1.273586
vt -0.273586 -0.016894
vt -0.157881 1.157881
vt -0.157881 -0.157881
vt -0.273586 1.016894
vt -0.016894 -0.273586
vt -0.359563 0.856042
vt 0.143957 -0.359563
vt -0.412507 0.681509
vt 0.318491 -0.412507
vt -0.430384 0.500000
vt 0.318491 1.412507
vt -0.343047 0.143957
vt -0.294132 0.143957
vt -0.214700 -0.016894
vt -0.107803 1.157881
vt -0.107803 -0.157881
vt -0.343047 0.681509
vt -0.343047 0.318491
vt -0.273586 0.500000
vt -0.214700 0.143957
vt -0.143213 -0.016894
vt -0.143213 1.016894
vt -0.107803 0.143957
vt -0.047008 -0.016894
vt 0.134501 1.273587
vt -0.047008 1.016894
vt 0.134501 -0.273586
vt -0.145240 0.681509
vt -0.157881 0.500000
vt -0.145240 0.318491
vt -0.006962 0.681509
vt -0.016893 0.500000
vt -0.006962 0.318491
vt 0.022452 0.143957
vt 0.212829 1.273587
vt 0.070218 -0.016894
vt 0.134501 1.157881
vt 0.134501 -0.157881
vt 0.212829 -0.273586
vt 0.203962 -0.016894
vt 0.203962 1.016894
vt 0.302194 -0.273586
vt 0.150799 0.681509
vt 0.143958 0.500000
vt 0.150799 0.318491
vt 0.171059 0.143957
vt 0.302194 1.273587
vt 0.318492 0.500000
vt 0.321979 0.318491
vt 0.332308 0.143957
vt 0.399159 1.273587
vt 0.349081 -0.016894
vt 0.399159 -0.273586
vt 0.430539 -0.359563
vt 0.321979 0.681509
vt 0.500000 -0.273586
vt 0.500000 -0.359563
vt 0.500000 0.681509
vt 0.500001 0.500000
vt 0.500000 0.143957
vt 0.500000 1.273587
vt 0.500000 -0.016894
vt 0.681510 0.500000
vt 0.678022 0.318491
vt 0.535411 1.412507
vt 0.569461 1.359563
vt 0.667693 0.143957
vt 0.600841 1.273587
vt 0.650920 -0.016894
vt 0.628346 1.157881
vt 0.628346 -0.157881
vt 0.650920 1.016894
vt 0.600841 -0.273586
vt 0.667693 0.856042
vt 0.569461 -0.359563
vt 0.678022 0.681509
vt 0.535411 -0.412507
vt 0.751760 -0.157881
vt 0.697807 -0.273586
vt 0.796039 1.016894
vt 0.828941 0.856042
vt 0.636252 -0.359563
vt 0.849202 0.681509
vt 0.569461 -0.412507
vt 0.856043 0.500000
vt 0.569461 1.412507
vt 0.849202 0.318491
vt 0.636252 1.359563
vt 0.828941 0.143957
vt 0.697807 1.273587
vt 0.796039 -0.016894
vt 0.751760 1.157881
vt 0.600841 1.412507
vt 0.697807 1.359563
vt 1.006962 0.318491
vt 0.977547 0.143957
vt 0.787170 1.273587
vt 0.929781 -0.016894
vt 0.865499 1.157881
vt 0.865499 -0.157881
vt 0.929781 1.016894
vt 0.787170 -0.273586
vt 0.977547 0.856042
vt 0.697807 -0.359563
vt 1.006962 0.681509
vt 0.600841 -0.412507
vt 1.016894 0.500000
vt 1.047008 1.016894
vt 1.107803 0.856042
vt 0.865499 -0.273586
vt 0.751760 -0.359563
vt 1.145240 0.681509
vt 0.628346 -0.412507
vt 1.157882 0.500000
vt 0.628346 1.412507
vt 1.145240 0.318491
vt 0.751760 1.359563
vt 1.107803 0.143957
vt 0.865499 1.273587
vt 1.047008 -0.016894
vt 0.965193 1.157881
vt 0.965193 -0.157881
vt 1.258722 0.318491
vt 1.214700 0.143957
vt 0.796039 1.359563
vt 0.929781 1.273586
vt 1.143214 -0.016894
vt 1.047008 1.157881
vt 1.047008 -0.157881
vt 1.143214 1.016894
vt 0.929781 -0.273586
vt 1.214700 0.856042
vt 0.796039 -0.359563
vt 1.258722 0.681509
vt 0.650920 -0.412507
vt 1.273586 0.500000
vt 0.650920 1.412507
vt 0.977547 -0.273586
vt 0.828941 -0.359563
vt 1.294132 0.856042
vt 1.343047 0.681509
vt 0.667693 -0.412507
vt 1.359563 0.500000
vt 0.667693 1.412507
vt 1.343047 0.318491
vt 0.828941 1.359563
vt 1.294132 0.143957
vt 0.977547 1.273586
vt 1.214700 -0.016894
vt 1.107803 1.157881
vt 1.107803 -0.157881
vt 1.214700 1.016894
vt 1.343047 0.143957
vt 1.258722 -0.016894
vt 1.006962 1.273586
vt 1.145240 1.157881
vt 1.145240 -0.157881
vt 1.258722 1.016894
vt 1.006962 -0.273586
vt 1.343047 0.856042
vt 0.849202 -0.359563
vt 1.394974 0.681509
vt 0.678021 -0.412507
vt 1.412507 0.500000
vt 0.678021 1.412507
vt 1.394974 0.318491
vt 0.849202 1.359563
vt 0.856043 -0.359563
vt 0.681510 -0.412507
vt 1.412507 0.681509
vt 1.430384 0.500000
vt 0.681510 1.412507
vt 1.412507 0.318491
vt 0.856043 1.359563
vt 1.359563 0.143957
vt 1.016894 1.273586
vt 1.273586 -0.016894
vt 1.157882 1.157881
vt 1.157882 -0.157881
vt 1.273586 1.016894
vt 1.016894 -0.273586
vt 1.359563 0.856042
vt 1.343047 0.143957
vt 1.359562 0.500000
vt 1.294132 0.143957
vt 1.214700 -0.016894
vt 1.143213 -0.016894
vt 1.143213 1.016894
vt 1.273585 0.500000
vt 1.214700 0.143957
vt 1.157880 0.500000
vt 1.107803 0.143957
vt 0.865499 1.273586
vt 1.047008 -0.016894
vt 1.047008 1.016894
vt 0.865499 -0.273586
vt 1.145240 0.681509
vt 0.787170 -0.273586
vt 1.006962 0.681509
vt 1.016893 0.500000
vt 0.977547 0.143957
vt 0.787170 1.273586
vt 0.929781 -0.016894
vt 0.856041 0.500000
vt 0.849200 0.318491
vt 0.828941 0.143957
vt 0.697807 1.273586
vt 0.796038 -0.016894
vt 0.796038 1.016894
vt 0.697807 -0.273586
vt 0.849200 0.681509
vt 0.600841 -0.273586
vt 0.569461 -0.359563
vt 0.678021 0.681509
vt 0.681509 0.500000
vt 0.678021 0.318491
vt 0.667693 0.143957
vt 0.600841 1.273586
vt 0.650920 -0.016894
s 0
f 475/1/1 474/2/1 9/3/1 10/4/1
f 478/5/2 6/6/2 17/7/2 18/8/2
f 2/9/3 475/1/3 10/4/3 11/10/3
f 7/11/4 478/5/4 18/8/4 19/12/4
f 476/13/5 2/9/5 11/10/5 12/14/5
f 479/15/6 7/11/6 19/12/6 20/16/6
f 3/17/7 476/13/7 12/14/7 13/18/7
f 480/19/8 479/15/8 20/16/8 21/20/8
f 477/21/9 3/17/9 13/18/9 14/22/9
f 481/23/10 480/19/10 21/20/10 22/24/10
f 4/25/11 477/21/11 14/22/11 15/26/11
f 482/27/12 481/23/12 22/24/12 23/28/12
f 5/29/13 4/25/13 15/26/13 16/30/13
f 474/2/14 1/31/14 9/3/14
f 8/32/15 482/27/15 23/28/15
f 6/6/16 5/29/16 16/30/16 17/7/16
f 16/30/17 15/26/17 30/33/17 31/34/17
f 9/3/18 1/31/18 24/35/18
f 8/32/19 23/28/19 38/36/19
f 17/7/20 16/30/20 31/34/20 32/37/20
f 10/4/21 9/3/21 24/35/21 25/38/21
f 18/8/22 17/7/22 32/37/22 33/39/22
f 11/10/23 10/4/23 25/38/23 26/40/23
f 19/12/24 18/8/24 33/39/24 34/41/24
f 12/14/25 11/10/25 26/40/25 27/42/25
f 20/16/26 19/12/26 34/41/26 35/43/26
f 13/18/27 12/14/27 27/42/27 28/44/27
f 21/20/28 20/16/28 35/43/28 36/45/28
f 14/22/29 13/18/29 28/44/29 29/46/29
f 22/24/30 21/20/30 36/45/30 37/47/30
f 15/26/31 14/22/31 29/46/31 30/33/31
f 23/28/32 22/24/32 37/47/32 38/36/32
f 35/43/33 34/41/33 49/48/33 50/49/33
f 28/44/34 27/42/34 42/50/34 43/51/34
f 36/45/35 35/43/35 50/49/35 51/52/35
f 29/46/36 28/44/36 43/51/36 44/53/36
f 37/47/37 36/45/37 51/52/37 52/54/37
f 30/33/38 29/46/38 44/53/38 45/55/38
f 38/36/39 37/47/39 52/54/39 53/56/39
f 31/34/40 30/33/40 45/55/40 46/57/40
f 24/35/41 1/31/41 39/58/41
f 8/32/42 38/36/42 53/56/42
f 32/37/43 31/34/43 46/57/43 47/59/43
f 25/38/44 24/35/44 39/58/44 40/60/44
f 33/39/45 32/37/45 47/59/45 48/61/45
f 26/40/46 25/38/46 40/60/46 41/62/46
f 34/41/47 33/39/47 48/61/47 49/48/47
f 27/42/48 26/40/48 41/62/48 42/50/48
f 8/32/49 53/56/49 68/63/49
f 47/59/50 46/57/50 61/64/50 62/65/50
f 40/60/51 39/58/51 54/66/51 55/67/51
f 48/61/52 47/59/52 62/65/52 63/68/52
f 41/62/53 40/60/53 55/67/53 56/69/53
f 49/48/54 48/61/54 63/68/54 64/70/54
f 42/50/55 41/62/55 56/69/55 57/71/55
f 50/49/56 49/48/56 64/70/56 65/72/56
f 43/51/57 42/50/57 57/71/57 58/73/57
f 51/52/58 50/49/58 65/72/58 66/74/58
f 44/53/59 43/51/59 58/73/59 59/75/59
f 52/54/60 51/52/60 66/74/60 67/76/60
f 45/55/61 44/53/61 59/75/61 60/77/61
f 53/56/62 52/54/62 67/76/62 68/63/62
f 46/57/63 45/55/63 60/77/63 61/64/63
f 39/58/64 1/31/64 54/66/64
f 66/74/65 65/72/65 80/78/65 81/79/65
f 59/75/66 58/73/66 73/80/66 74/81/66
f 67/76/67 66/74/67 81/79/67 82/82/67
f 60/77/68 59/75/68 74/81/68 75/83/68
f 68/63/69 67/76/69 82/82/69 83/84/69
f 61/64/70 60/77/70 75/83/70 76/85/70
f 54/66/71 1/31/71 69/86/71
f 8/32/72 68/63/72 83/84/72
f 62/65/73 61/64/73 76/85/73 77/87/73
f 55/67/74 54/66/74 69/86/74 70/88/74
f 63/68/75 62/65/75 77/87/75 78/89/75
f 56/69/76 55/67/76 70/88/76 71/90/76
f 64/70/77 63/68/77 78/89/77 79/91/77
f 57/71/78 56/69/78 71/90/78 72/92/78
f 65/72/79 64/70/79 79/91/79 80/78/79
f 58/73/80 57/71/80 72/92/80 73/80/80
f 70/88/81 69/86/81 84/93/81 85/94/81
f 78/89/82 77/87/82 92/95/82 93/96/82
f 71/90/83 70/88/83 85/94/83 86/97/83
f 79/91/84 78/89/84 93/96/84 94/98/84
f 72/92/85 71/90/85 86/97/85 87/99/85
f 80/78/86 79/91/86 94/98/86 95/100/86
f 73/80/87 72/92/87 87/99/87 88/101/87
f 81/79/88 80/78/88 95/100/88 96/102/88
f 74/81/89 73/80/89 88/101/89 89/103/89
f 82/82/90 81/79/90 96/102/90 97/104/90
f 75/83/91 74/81/91 89/103/91 90/105/91
f 83/84/92 82/82/92 97/104/92 98/106/92
f 76/85/93 75/83/93 90/105/93 91/107/93
f 69/86/94 1/31/94 84/93/94
f 8/32/95 83/84/95 98/106/95
f 77/87/96 76/85/96 91/107/96 92/95/96
f 89/103/97 88/101/97 103/108/97 104/109/97
f 97/104/98 96/102/98 111/110/98 112/111/98
f 90/105/99 89/103/99 104/109/99 105/112/99
f 98/106/100 97/104/100 112/111/100 113/113/100
f 91/107/101 90/105/101 105/112/101 106/114/101
f 84/93/102 1/31/102 99/115/102
f 8/32/103 98/106/103 113/113/103
f 92/95/104 91/107/104 106/114/104 107/116/104
f 85/94/105 84/93/105 99/115/105 100/117/105
f 93/96/106 92/95/106 107/116/106 108/118/106
f 86/97/107 85/94/107 100/117/107 101/119/107
f 94/98/108 93/96/108 108/118/108 109/120/108
f 87/99/109 86/97/109 101/119/109 102/121/109
f 95/100/110 94/98/110 109/120/110 110/122/110
f 88/101/111 87/99/111 102/121/111 103/108/111
f 96/102/112 95/100/112 110/122/112 111/110/112
f 108/118/113 107/116/113 122/123/113 123/124/113
f 101/119/114 100/117/114 115/125/114 116/126/114
f 109/120/115 108/118/115 123/124/115 124/127/115
f 102/121/116 101/119/116 116/126/116 117/128/116
f 110/122/117 109/120/117 124/127/117 125/129/117
f 103/108/118 102/121/118 117/128/118 118/130/118
f 111/110/119 110/122/119 125/129/119 126/131/119
f 104/109/120 103/108/120 118/130/120 119/132/120
f 112/111/121 111/110/121 126/131/121 127/133/121
f 105/112/122 104/109/122 119/132/122 120/134/122
f 113/113/123 112/111/123 127/133/123 128/135/123
f 106/114/124 105/112/124 120/134/124 121/136/124
f 99/115/125 1/31/125 114/137/125
f 8/32/126 113/113/126 128/135/126
f 107/116/127 106/114/127 121/136/127 122/123/127
f 100/117/128 99/115/128 114/137/128 115/125/128
f 127/133/129 126/131/129 141/110/129 142/111/129
f 120/134/130 119/132/130 134/109/130 135/112/130
f 128/135/131 127/133/131 142/111/131 143/113/131
f 121/136/132 120/134/132 135/112/132 136/114/132
f 114/137/133 1/31/133 129/115/133
f 8/32/134 128/135/134 143/113/134
f 122/123/135 121/136/135 136/114/135 137/116/135
f 115/125/136 114/137/136 129/115/136 130/117/136
f 123/124/137 122/123/137 137/116/137 138/138/137
f 116/126/138 115/125/138 130/117/138 131/119/138
f 124/127/139 123/124/139 138/138/139 139/120/139
f 117/128/140 116/126/140 131/119/140 132/121/140
f 125/129/141 124/127/141 139/120/141 140/122/141
f 118/130/142 117/128/142 132/121/142 133/108/142
f 126/131/143 125/129/143 140/122/143 141/110/143
f 119/132/144 118/130/144 133/108/144 134/109/144
f 131/119/145 130/117/145 145/94/145 146/97/145
f 139/120/146 138/138/146 153/139/146 154/140/146
f 132/121/147 131/119/147 146/97/147 147/141/147
f 140/122/148 139/120/148 154/140/148 155/142/148
f 133/108/149 132/121/149 147/141/149 148/101/149
f 141/110/150 140/122/150 155/142/150 156/102/150
f 134/109/151 133/108/151 148/101/151 149/103/151
f 142/111/152 141/110/152 156/102/152 157/104/152
f 135/112/153 134/109/153 149/103/153 150/143/153
f 143/113/154 142/111/154 157/104/154 158/106/154
f 136/114/155 135/112/155 150/143/155 151/107/155
f 129/115/156 1/31/156 144/93/156
f 8/32/157 143/113/157 158/106/157
f 137/116/158 136/114/158 151/107/158 152/144/158
f 130/117/159 129/115/159 144/93/159 145/94/159
f 138/138/160 137/116/160 152/144/160 153/139/160
f 150/143/161 149/103/161 164/81/161 165/83/161
f 158/106/162 157/104/162 172/82/162 173/84/162
f 151/107/163 150/143/163 165/83/163 166/145/163
f 144/93/164 1/31/164 159/86/164
f 8/32/165 158/106/165 173/84/165
f 152/144/166 151/107/166 166/145/166 167/87/166
f 145/94/167 144/93/167 159/86/167 160/88/167
f 153/139/168 152/144/168 167/87/168 168/146/168
f 146/97/169 145/94/169 160/88/169 161/90/169
f 154/140/170 153/139/170 168/146/170 169/147/170
f 147/141/171 146/97/171 161/90/171 162/92/171
f 155/142/172 154/140/172 169/147/172 170/78/172
f 148/101/173 147/141/173 162/92/173 163/148/173
f 156/102/174 155/142/174 170/78/174 171/79/174
f 149/103/175 148/101/175 163/148/175 164/81/175
f 157/104/176 156/102/176 171/79/176 172/82/176
f 169/147/177 168/146/177 183/149/177 184/150/177
f 162/92/178 161/90/178 176/151/178 177/71/178
f 170/78/179 169/147/179 184/150/179 185/72/179
f 163/148/180 162/92/180 177/71/180 178/152/180
f 171/79/181 170/78/181 185/72/181 186/153/181
f 164/81/182 163/148/182 178/152/182 179/75/182
f 172/82/183 171/79/183 186/153/183 187/76/183
f 165/83/184 164/81/184 179/75/184 180/154/184
f 173/84/185 172/82/185 187/76/185 188/63/185
f 166/145/186 165/83/186 180/154/186 181/155/186
f 159/86/187 1/31/187 174/66/187
f 8/32/188 173/84/188 188/63/188
f 167/87/189 166/145/189 181/155/189 182/156/189
f 160/88/190 159/86/190 174/66/190 175/67/190
f 168/146/191 167/87/191 182/156/191 183/149/191
f 161/90/192 160/88/192 175/67/192 176/151/192
f 188/63/193 187/76/193 202/54/193 203/56/193
f 181/155/194 180/154/194 195/157/194 196/158/194
f 174/66/195 1/31/195 189/58/195
f 8/32/196 188/63/196 203/56/196
f 182/156/197 181/155/197 196/158/197 197/159/197
f 175/67/198 174/66/198 189/58/198 190/60/198
f 183/149/199 182/156/199 197/159/199 198/160/199
f 176/151/200 175/67/200 190/60/200 191/161/200
f 184/150/201 183/149/201 198/160/201 199/162/201
f 177/71/202 176/151/202 191/161/202 192/163/202
f 185/72/203 184/150/203 199/162/203 200/164/203
f 178/152/204 177/71/204 192/163/204 193/51/204
f 186/153/205 185/72/205 200/164/205 201/165/205
f 179/75/206 178/152/206 193/51/206 194/53/206
f 187/76/207 186/153/207 201/165/207 202/54/207
f 180/154/208 179/75/208 194/53/208 195/157/208
f 200/164/209 199/162/209 214/166/209 215/43/209
f 193/51/210 192/163/210 207/42/210 208/167/210
f 201/165/211 200/164/211 215/43/211 216/168/211
f 194/53/212 193/51/212 208/167/212 209/46/212
f 202/54/213 201/165/213 216/168/213 217/47/213
f 195/157/214 194/53/214 209/46/214 210/169/214
f 203/56/215 202/54/215 217/47/215 218/36/215
f 196/158/216 195/157/216 210/169/216 211/170/216
f 189/58/217 1/31/217 204/35/217
f 8/32/218 203/56/218 218/36/218
f 197/159/219 196/158/219 211/170/219 212/171/219
f 190/60/220 189/58/220 204/35/220 205/38/220
f 198/160/221 197/159/221 212/171/221 213/172/221
f 191/161/222 190/60/222 205/38/222 206/173/222
f 199/162/223 198/160/223 213/172/223 214/166/223
f 192/163/224 191/161/224 206/173/224 207/42/224
f 204/35/225 1/31/225 219/3/225
f 8/32/226 218/36/226 233/28/226
f 212/171/227 211/170/227 226/174/227 227/175/227
f 205/38/228 204/35/228 219/3/228 220/4/228
f 213/172/229 212/171/229 227/175/229 228/176/229
f 206/173/230 205/38/230 220/4/230 221/177/230
f 214/166/231 213/172/231 228/176/231 229/178/231
f 207/42/232 206/173/232 221/177/232 222/14/232
f 215/43/233 214/166/233 229/178/233 230/16/233
f 208/167/234 207/42/234 222/14/234 223/18/234
f 216/168/235 215/43/235 230/16/235 231/179/235
f 209/46/236 208/167/236 223/18/236 224/22/236
f 217/47/237 216/168/237 231/179/237 232/180/237
f 210/169/238 209/46/238 224/22/238 225/181/238
f 218/36/239 217/47/239 232/180/239 233/28/239
f 211/170/240 210/169/240 225/181/240 226/174/240
f 223/18/241 222/14/241 237/13/241 238/17/241
f 231/179/242 230/16/242 245/15/242 246/182/242
f 224/22/243 223/18/243 238/17/243 239/21/243
f 232/180/244 231/179/244 246/182/244 247/183/244
f 225/181/245 224/22/245 239/21/245 240/184/245
f 233/28/246 232/180/246 247/183/246 248/27/246
f 226/174/247 225/181/247 240/184/247 241/185/247
f 219/3/248 1/31/248 234/2/248
f 8/32/249 233/28/249 248/27/249
f 227/175/250 226/174/250 241/185/250 242/6/250
f 220/4/251 219/3/251 234/2/251 235/1/251
f 228/176/252 227/175/252 242/6/252 243/186/252
f 221/177/253 220/4/253 235/1/253 236/187/253
f 229/178/254 228/176/254 243/186/254 244/188/254
f 222/14/255 221/177/255 236/187/255 237/13/255
f 230/16/256 229/178/256 244/188/256 245/15/256
f 242/6/257 241/185/257 256/189/257 257/190/257
f 235/1/258 234/2/258 249/191/258 250/192/258
f 243/186/259 242/6/259 257/190/259 258/193/259
f 236/187/260 235/1/260 250/192/260 251/194/260
f 244/188/261 243/186/261 258/193/261 259/195/261
f 237/13/262 236/187/262 251/194/262 252/196/262
f 245/15/263 244/188/263 259/195/263 260/197/263
f 238/17/264 237/13/264 252/196/264 253/198/264
f 246/182/265 245/15/265 260/197/265 261/199/265
f 239/21/266 238/17/266 253/198/266 254/200/266
f 247/183/267 246/182/267 261/199/267 262/201/267
f 240/184/268 239/21/268 254/200/268 255/202/268
f 248/27/269 247/183/269 262/201/269 263/203/269
f 241/185/270 240/184/270 255/202/270 256/189/270
f 234/2/271 1/31/271 249/191/271
f 8/32/272 248/27/272 263/203/272
f 261/199/273 260/197/273 275/204/273 276/205/273
f 254/200/274 253/198/274 268/206/274 269/207/274
f 262/201/275 261/199/275 276/205/275 277/208/275
f 255/202/276 254/200/276 269/207/276 270/209/276
f 263/203/277 262/201/277 277/208/277 278/210/277
f 256/189/278 255/202/278 270/209/278 271/211/278
f 249/191/279 1/31/279 264/212/279
f 8/32/280 263/203/280 278/210/280
f 257/190/281 256/189/281 271/211/281 272/213/281
f 250/192/282 249/191/282 264/212/282 265/214/282
f 258/193/283 257/190/283 272/213/283 273/215/283
f 251/194/284 250/192/284 265/214/284 266/216/284
f 259/195/285 258/193/285 273/215/285 274/217/285
f 252/196/286 251/194/286 266/216/286 267/218/286
f 260/197/287 259/195/287 274/217/287 275/204/287
f 253/198/288 252/196/288 267/218/288 268/206/288
f 265/214/289 264/212/289 279/219/289 280/220/289
f 273/215/290 272/213/290 287/221/290 288/222/290
f 266/216/291 265/214/291 280/220/291 281/223/291
f 274/217/292 273/215/292 288/222/292 289/224/292
f 267/218/293 266/216/293 281/223/293 282/225/293
f 275/204/294 274/217/294 289/224/294 290/226/294
f 268/206/295 267/218/295 282/225/295 283/227/295
f 276/205/296 275/204/296 290/226/296 291/228/296
f 269/207/297 268/206/297 283/227/297 284/229/297
f 277/208/298 276/205/298 291/228/298 292/230/298
f 270/209/299 269/207/299 284/229/299 285/231/299
f 278/210/300 277/208/300 292/230/300 293/232/300
f 271/211/301 270/209/301 285/231/301 286/233/301
f 264/212/302 1/31/302 279/219/302
f 8/32/303 278/210/303 293/232/303
f 272/213/304 271/211/304 286/233/304 287/221/304
f 284/229/305 283/227/305 298/234/305 299/235/305
f 292/230/306 291/228/306 306/236/306 307/237/306
f 285/231/307 284/229/307 299/235/307 300/238/307
f 293/232/308 292/230/308 307/237/308 308/239/308
f 286/233/309 285/231/309 300/238/309 301/240/309
f 279/219/310 1/31/310 294/241/310
f 8/32/311 293/232/311 308/239/311
f 287/221/312 286/233/312 301/240/312 302/242/312
f 280/220/313 279/219/313 294/241/313 295/243/313
f 288/222/314 287/221/314 302/242/314 303/244/314
f 281/223/315 280/220/315 295/243/315 296/245/315
f 289/224/316 288/222/316 303/244/316 304/246/316
f 282/225/317 281/223/317 296/245/317 297/247/317
f 290/226/318 289/224/318 304/246/318 305/248/318
f 283/227/319 282/225/319 297/247/319 298/234/319
f 291/228/320 290/226/320 305/248/320 306/236/320
f 303/244/321 302/242/321 317/249/321 318/250/321
f 296/245/322 295/243/322 310/251/322 311/252/322
f 304/246/323 303/244/323 318/250/323 319/253/323
f 297/247/324 296/245/324 311/252/324 312/254/324
f 305/248/325 304/246/325 319/253/325 320/255/325
f 298/234/326 297/247/326 312/254/326 313/256/326
f 306/236/327 305/248/327 320/255/327 321/257/327
f 299/235/328 298/234/328 313/256/328 314/258/328
f 307/237/329 306/236/329 321/257/329 322/259/329
f 300/238/330 299/235/330 314/258/330 315/260/330
f 308/239/331 307/237/331 322/259/331 323/261/331
f 301/240/332 300/238/332 315/260/332 316/262/332
f 294/241/333 1/31/333 309/263/333
f 8/32/334 308/239/334 323/261/334
f 302/242/335 301/240/335 316/262/335 317/249/335
f 295/243/336 294/241/336 309/263/336 310/251/336
f 322/259/337 321/257/337 336/264/337 337/265/337
f 315/260/338 314/258/338 329/266/338 330/267/338
f 323/261/339 322/259/339 337/265/339 338/268/339
f 316/262/340 315/260/340 330/267/340 331/269/340
f 309/263/341 1/31/341 324/270/341
f 8/32/342 323/261/342 338/268/342
f 317/249/343 316/262/343 331/269/343 332/271/343
f 310/251/344 309/263/344 324/270/344 325/272/344
f 318/250/345 317/249/345 332/271/345 333/273/345
f 311/252/346 310/251/346 325/272/346 326/274/346
f 319/253/347 318/250/347 333/273/347 334/275/347
f 312/254/348 311/252/348 326/274/348 327/276/348
f 320/255/349 319/253/349 334/275/349 335/277/349
f 313/256/350 312/254/350 327/276/350 328/278/350
f 321/257/351 320/255/351 335/277/351 336/264/351
f 314/258/352 313/256/352 328/278/352 329/266/352
f 334/275/353 333/273/353 348/279/353 349/280/353
f 327/276/354 326/274/354 341/281/354 342/282/354
f 335/277/355 334/275/355 349/280/355 350/283/355
f 328/278/356 327/276/356 342/282/356 343/284/356
f 336/264/357 335/277/357 350/283/357 351/285/357
f 329/266/358 328/278/358 343/284/358 344/286/358
f 337/265/359 336/264/359 351/285/359 352/287/359
f 330/267/360 329/266/360 344/286/360 345/288/360
f 338/268/361 337/265/361 352/287/361 353/289/361
f 331/269/362 330/267/362 345/288/362 346/290/362
f 324/270/363 1/31/363 339/291/363
f 8/32/364 338/268/364 353/289/364
f 332/271/365 331/269/365 346/290/365 347/292/365
f 325/272/366 324/270/366 339/291/366 340/293/366
f 333/273/367 332/271/367 347/292/367 348/279/367
f 326/274/368 325/272/368 340/293/368 341/281/368
f 353/289/369 352/287/369 367/294/369 368/295/369
f 346/290/370 345/288/370 360/296/370 361/297/370
f 339/291/371 1/31/371 354/298/371
f 8/32/372 353/289/372 368/295/372
f 347/292/373 346/290/373 361/297/373 362/299/373
f 340/293/374 339/291/374 354/298/374 355/300/374
f 348/279/375 347/292/375 362/299/375 363/301/375
f 341/281/376 340/293/376 355/300/376 356/302/376
f 349/280/377 348/279/377 363/301/377 364/303/377
f 342/282/378 341/281/378 356/302/378 357/304/378
f 350/283/379 349/280/379 364/303/379 365/305/379
f 343/284/380 342/282/380 357/304/380 358/306/380
f 351/285/381 350/283/381 365/305/381 366/307/381
f 344/286/382 343/284/382 358/306/382 359/308/382
f 352/287/383 351/285/383 366/307/383 367/294/383
f 345/288/384 344/286/384 359/308/384 360/296/384
f 357/304/385 356/302/385 371/281/385 372/282/385
f 365/305/386 364/303/386 379/280/386 380/283/386
f 358/306/387 357/304/387 372/282/387 373/284/387
f 366/307/388 365/305/388 380/283/388 381/285/388
f 359/308/389 358/306/389 373/284/389 374/286/389
f 367/294/390 366/307/390 381/285/390 382/287/390
f 360/296/391 359/308/391 374/286/391 375/288/391
f 368/295/392 367/294/392 382/287/392 383/289/392
f 361/297/393 360/296/393 375/288/393 376/290/393
f 354/298/394 1/31/394 369/291/394
f 8/32/395 368/295/395 383/289/395
f 362/299/396 361/297/396 376/290/396 377/292/396
f 355/300/397 354/298/397 369/291/397 370/293/397
f 363/301/398 362/299/398 377/292/398 378/309/398
f 356/302/399 355/300/399 370/293/399 371/281/399
f 364/303/400 363/301/400 378/309/400 379/280/400
f 376/290/401 375/288/401 390/267/401 391/310/401
f 369/291/402 1/31/402 384/270/402
f 8/32/403 383/289/403 398/268/403
f 377/292/404 376/290/404 391/310/404 392/271/404
f 370/293/405 369/291/405 384/270/405 385/272/405
f 378/309/406 377/292/406 392/271/406 393/311/406
f 371/281/407 370/293/407 385/272/407 386/274/407
f 379/280/408 378/309/408 393/311/408 394/312/408
f 372/282/409 371/281/409 386/274/409 387/276/409
f 380/283/410 379/280/410 394/312/410 395/277/410
f 373/284/411 372/282/411 387/276/411 388/278/411
f 381/285/412 380/283/412 395/277/412 396/264/412
f 374/286/413 373/284/413 388/278/413 389/266/413
f 382/287/414 381/285/414 396/264/414 397/265/414
f 375/288/415 374/286/415 389/266/415 390/267/415
f 383/289/416 382/287/416 397/265/416 398/268/416
f 395/277/417 394/312/417 409/313/417 410/255/417
f 388/278/418 387/276/418 402/254/418 403/314/418
f 396/264/419 395/277/419 410/255/419 411/257/419
f 389/266/420 388/278/420 403/314/420 404/258/420
f 397/265/421 396/264/421 411/257/421 412/259/421
f 390/267/422 389/266/422 404/258/422 405/260/422
f 398/268/423 397/265/423 412/259/423 413/261/423
f 391/310/424 390/267/424 405/260/424 406/315/424
f 384/270/425 1/31/425 399/263/425
f 8/32/426 398/268/426 413/261/426
f 392/271/427 391/310/427 406/315/427 407/249/427
f 385/272/428 384/270/428 399/263/428 400/251/428
f 393/311/429 392/271/429 407/249/429 408/316/429
f 386/274/430 385/272/430 400/251/430 401/252/430
f 394/312/431 393/311/431 408/316/431 409/313/431
f 387/276/432 386/274/432 401/252/432 402/254/432
f 399/263/433 1/31/433 414/241/433
f 8/32/434 413/261/434 428/239/434
f 407/249/435 406/315/435 421/317/435 422/242/435
f 400/251/436 399/263/436 414/241/436 415/243/436
f 408/316/437 407/249/437 422/242/437 423/318/437
f 401/252/438 400/251/438 415/243/438 416/319/438
f 409/313/439 408/316/439 423/318/439 424/320/439
f 402/254/440 401/252/440 416/319/440 417/247/440
f 410/255/441 409/313/441 424/320/441 425/248/441
f 403/314/442 402/254/442 417/247/442 418/321/442
f 411/257/443 410/255/443 425/248/443 426/322/443
f 404/258/444 403/314/444 418/321/444 419/235/444
f 412/259/445 411/257/445 426/322/445 427/237/445
f 405/260/446 404/258/446 419/235/446 420/323/446
f 413/261/447 412/259/447 427/237/447 428/239/447
f 406/315/448 405/260/448 420/323/448 421/317/448
f 418/321/449 417/247/449 432/225/449 433/227/449
f 426/322/450 425/248/450 440/226/450 441/324/450
f 419/235/451 418/321/451 433/227/451 434/229/451
f 427/237/452 426/322/452 441/324/452 442/230/452
f 420/323/453 419/235/453 434/229/453 435/325/453
f 428/239/454 427/237/454 442/230/454 443/232/454
f 421/317/455 420/323/455 435/325/455 436/326/455
f 414/241/456 1/31/456 429/219/456
f 8/32/457 428/239/457 443/232/457
f 422/242/458 421/317/458 436/326/458 437/221/458
f 415/243/459 414/241/459 429/219/459 430/220/459
f 423/318/460 422/242/460 437/221/460 438/327/460
f 416/319/461 415/243/461 430/220/461 431/328/461
f 424/320/462 423/318/462 438/327/462 439/329/462
f 417/247/463 416/319/463 431/328/463 432/225/463
f 425/248/464 424/320/464 439/329/464 440/226/464
f 437/221/465 436/326/465 451/330/465 452/331/465
f 430/220/466 429/219/466 444/212/466 445/214/466
f 438/327/467 437/221/467 452/331/467 453/332/467
f 431/328/468 430/220/468 445/214/468 446/333/468
f 439/329/469 438/327/469 453/332/469 454/334/469
f 432/225/470 431/328/470 446/333/470 447/218/470
f 440/226/471 439/329/471 454/334/471 455/204/471
f 433/227/472 432/225/472 447/218/472 448/335/472
f 441/324/473 440/226/473 455/204/473 456/336/473
f 434/229/474 433/227/474 448/335/474 449/207/474
f 442/230/475 441/324/475 456/336/475 457/208/475
f 435/325/476 434/229/476 449/207/476 450/337/476
f 443/232/477 442/230/477 457/208/477 458/210/477
f 436/326/478 435/325/478 450/337/478 451/330/478
f 429/219/479 1/31/479 444/212/479
f 8/32/480 443/232/480 458/210/480
f 456/336/481 455/204/481 470/197/481 471/338/481
f 449/207/482 448/335/482 463/198/482 464/200/482
f 457/208/483 456/336/483 471/338/483 472/339/483
f 450/337/484 449/207/484 464/200/484 465/340/484
f 458/210/485 457/208/485 472/339/485 473/203/485
f 451/330/486 450/337/486 465/340/486 466/341/486
f 444/212/487 1/31/487 459/191/487
f 8/32/488 458/210/488 473/203/488
f 452/331/489 451/330/489 466/341/489 467/342/489
f 445/214/490 444/212/490 459/191/490 460/192/490
f 453/332/491 452/331/491 467/342/491 468/343/491
f 446/333/492 445/214/492 460/192/492 461/344/492
f 454/334/493 453/332/493 468/343/493 469/345/493
f 447/218/494 446/333/494 461/344/494 462/196/494
f 455/204/495 454/334/495 469/345/495 470/197/495
f 448/335/496 447/218/496 462/196/496 463/198/496
f 468/343/497 467/342/497 6/6/497 478/5/497
f 461/344/498 460/192/498 475/1/498 2/9/498
f 469/345/499 468/343/499 478/5/499 7/11/499
f 462/196/500 461/344/500 2/9/500 476/13/500
f 470/197/501 469/345/501 7/11/501 479/15/501
f 463/198/502 462/196/502 476/13/502 3/17/502
f 471/338/503 470/197/503 479/15/503 480/19/503
f 464/200/504 463/198/504 3/17/504 477/21/504
f 472/339/505 471/338/505 480/19/505 481/23/505
f 465/340/506 464/200/506 477/21/506 4/25/506
f 473/203/507 472/339/507 481/23/507 482/27/507
f 466/341/508 465/340/508 4/25/508 5/29/508
f 459/191/509 1/31/509 474/2/509
f 8/32/510 473/203/510 482/27/510
f 467/342/511 466/341/511 5/29/511 6/6/511
f 460/192/512 459/191/512 474/2/512 475/1/512
o Icosphere
